<?xml version="1.0" encoding="utf-8"?>
<!-- Generator: Adobe Illustrator 19.1.0, SVG Export Plug-In . SVG Version: 6.00 Build 0)  -->
<svg version="1.1" id="Layer_1" xmlns="http://www.w3.org/2000/svg" xmlns:xlink="http://www.w3.org/1999/xlink" x="0px" y="0px"
	 viewBox="-300 45 425 512" style="enable-background:new -343 45 512 512;" xml:space="preserve">
<style type="text/css">
	.st0{fill:#5C2F79;}
	.st1{fill:#79439E;}
	.st2{fill:#E89330;}
	.st3{fill:#F9CF00;}
	.st4{fill:#FFDB8A;}
	.st5{fill:#FFEAB5;}
</style>
<polygon class="st0" points="-98.5,344.9 -182.9,548.8 -203.1,512.2 -147.2,309.5 "/>
<polygon class="st1" points="-195.1,271.4 -291.4,503.9 -219.2,483 -203.1,512.2 -125.4,324.4 "/>
<polygon class="st0" points="-75.5,344.9 8.9,548.8 29.1,512.2 -26.8,309.5 "/>
<polygon class="st1" points="21.1,271.4 -48.6,324.4 29.1,512.2 45.2,483 117.4,503.9 "/>
<path class="st2" d="M-87,53.2l-54.5,156.5L-87,366.1c86.4,0,156.5-70,156.5-156.5S-0.6,53.2-87,53.2z"/>
<path class="st3" d="M-243.5,209.6c0,86.4,70,156.5,156.5,156.5V53.2C-173.4,53.2-243.5,123.2-243.5,209.6z"/>
<path class="st4" d="M-87,85.9v247.5c68.2,0,123.8-55.5,123.8-123.8S-18.8,85.9-87,85.9z"/>
<path class="st5" d="M-87,85.9c-68.2,0-123.8,55.5-123.8,123.8S-155.2,333.4-87,333.4c56.2,0,102-55.5,102-123.8S-30.8,85.9-87,85.9
	z"/>
<polygon class="st3" points="-87,118.5 -59.4,171.6 -0.4,181.5 -42.3,224.2 -33.5,283.3 -87,256.7 -140.5,283.3 -131.7,224.2
	-173.6,181.5 -114.6,171.6 "/>
<path d="M125,500.8L57.2,337.1c-1.7-4.2-6.5-6.1-10.7-4.4c-4.2,1.7-6.1,6.5-4.4,10.7l61.3,147.9l-55.9-16.2
	c-3.7-1.1-7.6,0.6-9.4,3.9L10,530l-65.8-158.7c75.9-14.6,133.4-81.5,133.4-161.6C77.6,118.8,3.8,45-87,45s-164.6,73.8-164.6,164.6
	c0,36.8,12.1,70.8,32.6,98.2l-79.9,193c-1.2,2.9-0.6,6.2,1.5,8.6c2.1,2.3,5.3,3.3,8.4,2.4l65.9-19.1l33.1,60.1
	c1.4,2.6,4.2,4.2,7.2,4.2c0.1,0,0.3,0,0.5,0c3.1-0.2,5.9-2.1,7.1-5l63.3-152.9c1.7-4.2-0.3-8.9-4.4-10.7c-4.2-1.7-8.9,0.3-10.7,4.4
	L-184,530l-28.1-51c-1.8-3.3-5.8-5-9.4-3.9l-55.9,16.2l70.2-169.4c30.1,32.2,72.8,52.3,120.2,52.3c4.9,0,9.7-0.2,14.5-0.6L1.4,552
	c1.2,2.9,4,4.9,7.1,5c0.2,0,0.3,0,0.5,0c3,0,5.7-1.6,7.2-4.2l33.1-60.1l65.9,19.1c3,0.9,6.3-0.1,8.4-2.4
	C125.6,507,126.2,503.7,125,500.8z M-235.3,209.6c0-81.8,66.5-148.3,148.3-148.3S61.3,127.9,61.3,209.6S-5.2,357.9-87,357.9
	C-168.8,357.9-235.3,291.4-235.3,209.6z"/>
<path d="M7.4,178.9c-0.9-2.9-3.4-5-6.4-5.5l-55-9.2l-25.8-49.4c-1.4-2.7-4.2-4.4-7.2-4.4c-3,0-5.8,1.7-7.2,4.4l-25.8,49.4l-55,9.2
	c-3,0.5-5.5,2.6-6.4,5.5c-0.9,2.9-0.2,6.1,1.9,8.2l39.1,39.8l-8.2,55.1c-0.4,3,0.8,6,3.3,7.8c2.5,1.8,5.7,2.1,8.4,0.7l49.9-24.9
	l49.9,24.9c1.2,0.6,2.4,0.9,3.6,0.9c1.7,0,3.4-0.5,4.8-1.6c2.5-1.8,3.7-4.8,3.3-7.8l-8.2-55.1l39.1-39.8
	C7.6,185,8.3,181.8,7.4,178.9z M-48.1,218.4c-1.8,1.8-2.6,4.4-2.3,6.9l6.5,43.7l-39.5-19.7c-2.3-1.1-5-1.1-7.3,0l-39.5,19.7
	l6.5-43.7c0.4-2.5-0.5-5.1-2.3-6.9l-30.9-31.5l43.5-7.3c2.5-0.4,4.7-2,5.9-4.3l20.4-39.1l20.4,39.1c1.2,2.3,3.4,3.9,5.9,4.3
	l43.5,7.3L-48.1,218.4z"/>
<path d="M36.8,217.9c-4.5-0.6-8.6,2.6-9.2,7C20,282.1-29.3,325.2-87,325.2c-63.7,0-115.6-51.9-115.6-115.6
	C-202.6,145.9-150.7,94-87,94c57.8,0,107,43.1,114.6,100.3c0.6,4.5,4.7,7.6,9.2,7c4.5-0.6,7.6-4.7,7-9.2
	C35.1,126.9-21.1,77.7-87,77.7c-72.8,0-131.9,59.2-131.9,131.9S-159.8,341.6-87,341.6c65.9,0,122.1-49.2,130.8-114.5
	C44.4,222.6,41.2,218.5,36.8,217.9z"/>
</svg>
