<?xml version="1.0" encoding="utf-8"?>
<!-- Generator: Adobe Illustrator 19.1.0, SVG Export Plug-In . SVG Version: 6.00 Build 0)  -->
<svg version="1.1" id="Layer_1" xmlns="http://www.w3.org/2000/svg" xmlns:xlink="http://www.w3.org/1999/xlink" x="0px" y="0px"
	 viewBox="-343 45 512 512" style="enable-background:new -343 45 512 512;" xml:space="preserve">
<style type="text/css">
	.st0{fill:#79439E;}
	.st1{fill:#FEFDCA;}
	.st2{fill:#5B2D78;}
	.st3{fill:#FFFFFF;}
	.st4{fill:#F9CF00;}
	.st5{fill:#F99830;}
</style>
<path class="st0" d="M-269.6,235.8c0-100.9,81.8-182.6,182.6-182.6S95.6,134.9,95.6,235.8S-87,548.8-87,548.8
	S-269.6,336.6-269.6,235.8z"/>
<circle class="st1" cx="-87" cy="235.8" r="139.1"/>
<path class="st2" d="M-269.6,235.8C-269.6,336.6-87,548.8-87,548.8V53.2C-187.9,53.2-269.6,134.9-269.6,235.8z"/>
<path class="st3" d="M-226.1,235.8c0,76.8,62.3,139.1,139.1,139.1V96.6C-163.8,96.6-226.1,158.9-226.1,235.8z"/>
<g>
	<g>
		<polygon class="st4" points="4.3,196.6 -8.7,288 -56.6,288 		"/>
		<circle class="st4" cx="4.3" cy="196.6" r="21.7"/>
	</g>
</g>
<polygon class="st5" points="-178.3,196.6 -165.3,288 -117.4,288 "/>
<circle class="st5" cx="-178.3" cy="196.6" r="21.7"/>
<polygon class="st4" points="-87,161.9 -60.9,288 -113.1,288 "/>
<polygon class="st5" points="-87,161.9 -87,288 -113.1,288 "/>
<circle class="st4" cx="-87" cy="157.5" r="21.7"/>
<path class="st5" d="M-108.7,157.5c0,12,9.7,21.7,21.7,21.7v-43.5C-99,135.8-108.7,145.5-108.7,157.5z"/>
<rect x="-165.3" y="279.3" class="st4" width="156.5" height="47.8"/>
<rect x="-165.3" y="279.3" class="st5" width="78.3" height="47.8"/>
<path d="M28.5,198.3c0-15.7-12.8-28.5-28.5-28.5s-28.5,12.8-28.5,28.5c0,6.9,2.5,13.4,6.8,18.5l-35,52.5h-0.9l-17.1-82.6
	c9.7-4.6,16.1-14.4,16.1-25.6c0-15.7-12.8-28.5-28.5-28.5s-28.5,12.8-28.5,28.5c0,11.2,6.4,21,16.1,25.6l-17.1,82.6h-0.9l-35-52.5
	c4.4-5.1,6.8-11.6,6.8-18.5c0-15.7-12.8-28.5-28.5-28.5s-28.5,12.8-28.5,28.5c0,14.4,10.8,26.4,24.7,28.2l8.5,59.3v36.7
	c0,4.3,3.5,7.8,7.8,7.8h149.2c4.3,0,7.8-3.5,7.8-7.8v-36.7l8.5-59.3C17.7,224.6,28.5,212.7,28.5,198.3z M-156,269.2l-5.4-38.2
	l25.4,38.2H-156z M-12.5,231.1l-5.4,38.2h-20L-12.5,231.1z M-73.4,269.2h-27.2l13.6-65.8L-73.4,269.2z M-87,148
	c7.1,0,12.9,5.8,12.9,12.9c0,6.4-4.6,11.7-10.8,12.8l0,0c-1.6,0.3-2.6,0.3-4.2,0c0,0,0,0,0,0c-6.3-1-10.8-6.4-10.8-12.8
	C-99.9,153.8-94.1,148-87,148z M-187,198.3c0-7.1,5.8-12.9,12.9-12.9c7.1,0,12.9,5.8,12.9,12.9c0,4.3-2.2,8.4-5.8,10.8c0,0,0,0,0,0
	c-1.6,1.1-3.4,1.7-5.3,2c0,0,0,0,0,0c0,0,0,0,0,0s0,0,0,0c-0.7,0.1-1.3,0.2-1.8,0.2C-181.2,211.2-187,205.4-187,198.3z M-20.2,314.8
	h-133.6v-29.5v-0.5h32.3c0,0,0,0,0,0s0,0,0,0h11.3c0,0,0,0,0,0c0,0,0,0,0,0h46.2c0,0,0,0,0,0c0,0,0,0,0,0h11.3c0,0,0,0,0,0
	c0,0,0,0,0,0h32.3v0.5L-20.2,314.8L-20.2,314.8z M0,211.2c-0.5,0-1.1,0-1.8-0.2c0,0,0,0,0,0c0,0,0,0,0,0c0,0,0,0,0,0
	c-2-0.3-3.7-1-5.3-2c0,0,0,0,0,0c-3.6-2.4-5.8-6.4-5.8-10.8c0-7.1,5.8-12.9,12.9-12.9S13,191.1,13,198.3C13,205.4,7.2,211.2,0,211.2
	z"/>
<path d="M-87,45c-105.2,0-190.8,85.6-190.8,190.8c0,102.7,177.1,309.6,184.6,318.4c1.5,1.8,3.8,2.8,6.2,2.8s4.6-1,6.2-2.8
	c7.5-8.8,184.6-215.7,184.6-318.4C103.8,130.6,18.2,45-87,45z M-87,536.2c-31.7-38-174.5-214-174.5-300.4
	c0-96.2,78.3-174.5,174.5-174.5S87.5,139.6,87.5,235.8C87.5,322.2-55.3,498.2-87,536.2z"/>
<path d="M-87,84c-83.7,0-151.8,68.1-151.8,151.8S-170.7,387.6-87,387.6S64.8,319.5,64.8,235.8S-3.3,84-87,84z M-87,370.8
	c-74.4,0-135-60.6-135-135s60.5-135,135-135s135,60.6,135,135S-12.6,370.8-87,370.8z"/>
</svg>
