<?xml version="1.0" encoding="utf-8"?>
<!-- Generator: Adobe Illustrator 19.1.0, SVG Export Plug-In . SVG Version: 6.00 Build 0)  -->
<svg version="1.1" id="Layer_1" xmlns="http://www.w3.org/2000/svg" xmlns:xlink="http://www.w3.org/1999/xlink" x="0px" y="0px"
	 viewBox="-343 45 512 512" style="enable-background:new -343 45 512 512;" xml:space="preserve">
<g>
	<path style="fill:#ECF1F8;" d="M146.5,110.1h-32.4v41.6c0,8.8-7.1,15.9-15.9,15.9c-8.8,0-15.9-7.1-15.9-15.9v-41.6H49.8v41.6
		c0,8.8-7.1,15.9-15.9,15.9c-8.8,0-15.9-7.1-15.9-15.9v-41.6h-213.8v41.6c0,8.8-7.1,15.9-15.9,15.9c-8.8,0-15.9-7.1-15.9-15.9v-41.6
		h-32.6v41.6c0,8.8-7.1,15.9-15.9,15.9c-8.8,0-15.9-7.1-15.9-15.9v-41.6h-32.4c-7.2,0-13,5.8-13,13c0,15.7,0,396.9,0,413.5
		c0,7.2,5.8,13,13,13c15.4,0,61.4,0,76.6,0h394.4c7.2,0,13-5.8,13-13c0-19.2,0-393.7,0-413.5C159.5,115.9,153.7,110.1,146.5,110.1z"
		/>
	<path style="fill:#F2F7FC;" d="M146.5,110.1h-32.4v41.6c0,8.8-7.1,15.9-15.9,15.9c-8.8,0-15.9-7.1-15.9-15.9v-41.6H49.8v41.6
		c0,8.8-7.1,15.9-15.9,15.9c-8.8,0-15.9-7.1-15.9-15.9v-41.6H-84.7C-113,270.4,1.7,417.7,159.5,433.7c0-10.5,0-300.2,0-310.6
		C159.5,115.9,153.7,110.1,146.5,110.1z"/>
	<path style="fill:#5B2C78;" d="M159.5,123v81.5h-496.9c0-89-0.5-82.8,1-86.6c0,0,0,0,0,0c1.2-2.8,3-4.7,5.5-6.2
		c4.4-2.5,5.3-1.7,38.8-1.7v41.6c0,8.8,7.1,15.9,15.9,15.9c8.8,0,15.9-7.1,15.9-15.9v-41.6h32.6v41.6c0,8.8,7.1,15.9,15.9,15.9
		c8.8,0,15.9-7.1,15.9-15.9v-41.6H17.9v41.6c0,8.8,7.1,15.9,15.9,15.9c8.8,0,15.9-7.1,15.9-15.9v-41.6h32.6v41.6
		c0,8.8,7.1,15.9,15.9,15.9c8.8,0,15.9-7.1,15.9-15.9v-41.6h32.4C153.7,110.1,159.5,115.9,159.5,123z"/>
	<path style="fill:#79439E;" d="M159.5,123v81.5H-85.1c-5.2-31.2-5.1-63.3,0.4-94.5H17.9v41.6c0,8.8,7.1,15.9,15.9,15.9
		c8.8,0,15.9-7.1,15.9-15.9v-41.6h32.6v41.6c0,8.8,7.1,15.9,15.9,15.9c8.8,0,15.9-7.1,15.9-15.9v-41.6h32.4
		C153.7,110.1,159.5,115.9,159.5,123z"/>
	<g>
		<g>
			<path style="fill:#F9CF00;" d="M-260.3,151.7c0,8.8-7.1,15.9-15.9,15.9l0,0c-8.8,0-15.9-7.1-15.9-15.9V68.5
				c0-8.8,7.1-15.9,15.9-15.9c8.8,0,15.9,7.1,15.9,15.9V151.7z"/>
			<path style="fill:#F9CF00;" d="M-195.8,151.7c0,8.8-7.1,15.9-15.9,15.9l0,0c-8.8,0-15.9-7.1-15.9-15.9V68.5
				c0-8.8,7.1-15.9,15.9-15.9l0,0c8.8,0,15.9,7.1,15.9,15.9V151.7z"/>
			<path style="fill:#F9CF00;" d="M49.8,151.7c0,8.8-7.1,15.9-15.9,15.9l0,0c-8.8,0-15.9-7.1-15.9-15.9V68.5
				c0-8.8,7.1-15.9,15.9-15.9c8.8,0,15.9,7.1,15.9,15.9V151.7z"/>
			<path style="fill:#F9CF00;" d="M114.2,151.7c0,8.8-7.1,15.9-15.9,15.9l0,0c-8.8,0-15.9-7.1-15.9-15.9V68.5
				c0-8.8,7.1-15.9,15.9-15.9l0,0c8.8,0,15.9,7.1,15.9,15.9V151.7z"/>
		</g>
	</g>
	<g>
		<path style="fill:#E89330;" d="M-275.5,151.7V68.5c0-5.7,3.1-10.8,7.6-13.6c-10.6-6.5-24.2,1.2-24.2,13.6v83.2
			c0,8.8,7.1,15.9,15.9,15.9c3,0,5.9-0.9,8.3-2.3C-272.5,162.5-275.5,157.4-275.5,151.7z"/>
		<path style="fill:#E89330;" d="M-211.1,151.7V68.5c0-5.7,3.1-10.8,7.6-13.6c-2.4-1.5-5.2-2.3-8.3-2.3c-8.8,0-15.9,7.1-15.9,15.9
			v83.2c0,12.4,13.6,20.1,24.2,13.6C-208,162.5-211.1,157.4-211.1,151.7z"/>
		<path style="fill:#E89330;" d="M34.5,151.7V68.5c0-5.7,3.1-10.8,7.6-13.6c-10.6-6.5-24.2,1.2-24.2,13.6v83.2
			c0,8.8,7.1,15.9,15.9,15.9c3,0,5.9-0.9,8.3-2.3C37.6,162.5,34.5,157.4,34.5,151.7z"/>
		<path style="fill:#E89330;" d="M98.9,151.7V68.5c0-5.7,3.1-10.8,7.6-13.6c-2.4-1.5-5.2-2.3-8.3-2.3c-8.8,0-15.9,7.1-15.9,15.9
			v83.2c0,8.8,7.1,15.9,15.9,15.9c3,0,5.9-0.9,8.3-2.3C102,162.5,98.9,157.4,98.9,151.7z"/>
	</g>
	<path style="fill:#F9CF00;" d="M-227.3,309.5h-39.5c-6.9,0-12.6-5.6-12.6-12.6v-39.6c0-6.9,5.6-12.6,12.6-12.6h39.6
		c7,0,12.6,5.6,12.6,12.6v39.6C-214.7,303.9-220.3,309.5-227.3,309.5"/>
	<path style="fill:#E89330;" d="M-214.7,257.4v39.5c0,7-5.6,12.6-12.6,12.6h-13.5c6.9,0,12.6-5.6,12.6-12.6v-39.5
		c0-7-5.6-12.6-12.6-12.6h13.5C-220.4,244.8-214.7,250.4-214.7,257.4z"/>
	<path style="fill:#F9CF00;" d="M-121.2,309.5h-39.6c-6.9,0-12.6-5.6-12.6-12.6v-39.6c0-6.9,5.6-12.6,12.6-12.6h39.6
		c7,0,12.6,5.6,12.6,12.6v39.6C-108.7,303.9-114.3,309.5-121.2,309.5"/>
	<path style="fill:#E89330;" d="M-108.7,257.4v39.5c0,7-5.6,12.6-12.6,12.6h-13.5c6.9,0,12.6-5.6,12.6-12.6v-39.5
		c0-7-5.6-12.6-12.6-12.6h13.5C-114.3,244.8-108.7,250.4-108.7,257.4z"/>
	<path style="fill:#F9CF00;" d="M-15.2,309.5h-39.6c-7,0-12.6-5.6-12.6-12.6v-39.6c0-6.9,5.6-12.6,12.6-12.6h39.6
		c7,0,12.6,5.6,12.6,12.6v39.6C-2.6,303.9-8.3,309.5-15.2,309.5"/>
	<path style="fill:#E89330;" d="M-2.6,257.4v39.5c0,7-5.6,12.6-12.6,12.6h-13.5c6.9,0,12.6-5.6,12.6-12.6v-39.5
		c0-7-5.6-12.6-12.6-12.6h13.5C-8.3,244.8-2.6,250.4-2.6,257.4z"/>
	<path style="fill:#F9CF00;" d="M90.8,309.5H51.3c-7,0-12.6-5.6-12.6-12.6v-39.6c0-6.9,5.6-12.6,12.6-12.6h39.6
		c7,0,12.6,5.6,12.6,12.6v39.6C103.4,303.9,97.8,309.5,90.8,309.5"/>
	<g>
		<path style="fill:#F9CF00;" d="M103.4,257.4v39.5c0,7-5.6,12.6-12.6,12.6H77.4c6.9,0,12.6-5.6,12.6-12.6v-39.5
			c0-7-5.6-12.6-12.6-12.6h13.5C97.8,244.8,103.4,250.4,103.4,257.4z"/>
		<path style="fill:#F9CF00;" d="M-227.3,407h-39.5c-6.9,0-12.6-5.6-12.6-12.6v-39.5c0-7,5.6-12.6,12.6-12.6h39.6
			c7,0,12.6,5.6,12.6,12.6v39.5C-214.7,401.4-220.3,407-227.3,407"/>
	</g>
	<path style="fill:#E89330;" d="M-214.7,354.9v39.5c0,7-5.6,12.6-12.6,12.6h-13.5c6.9,0,12.6-5.6,12.6-12.6v-39.5
		c0-7-5.6-12.6-12.6-12.6h13.5C-220.4,342.3-214.7,348-214.7,354.9z"/>
	<path style="fill:#F9CF00;" d="M-121.2,407h-39.6c-6.9,0-12.6-5.6-12.6-12.6v-39.5c0-7,5.6-12.6,12.6-12.6h39.6
		c7,0,12.6,5.6,12.6,12.6v39.5C-108.7,401.4-114.3,407-121.2,407"/>
	<path style="fill:#E89330;" d="M-108.7,354.9v39.5c0,7-5.6,12.6-12.6,12.6h-13.5c6.9,0,12.6-5.6,12.6-12.6v-39.5
		c0-7-5.6-12.6-12.6-12.6h13.5C-114.3,342.3-108.7,348-108.7,354.9z"/>
	<path style="fill:#F9CF00;" d="M-15.2,407h-39.6c-7,0-12.6-5.6-12.6-12.6v-39.5c0-7,5.6-12.6,12.6-12.6h39.6
		c7,0,12.6,5.6,12.6,12.6v39.5C-2.6,401.4-8.3,407-15.2,407"/>
	<path style="fill:#9FB8C1;" d="M-2.6,354.9v39.5c0,7-5.6,12.6-12.6,12.6h-13.5c6.9,0,12.6-5.6,12.6-12.6v-39.5
		c0-7-5.6-12.6-12.6-12.6h13.5C-8.3,342.3-2.6,348-2.6,354.9z"/>
	<path style="fill:#F9CF00;" d="M90.8,407H51.3c-7,0-12.6-5.6-12.6-12.6v-39.5c0-7,5.6-12.6,12.6-12.6h39.6c7,0,12.6,5.6,12.6,12.6
		v39.5C103.4,401.4,97.8,407,90.8,407"/>
	<g>
		<path style="fill:#E89330;" d="M103.4,354.9v39.5c0,7-5.6,12.6-12.6,12.6H77.4c6.9,0,12.6-5.6,12.6-12.6v-39.5
			c0-7-5.6-12.6-12.6-12.6h13.5C97.8,342.3,103.4,348,103.4,354.9z"/>
		<path style="fill:#F9CF00;" d="M-227.3,504.6h-39.5c-6.9,0-12.6-5.6-12.6-12.6v-39.6c0-6.9,5.6-12.6,12.6-12.6h39.6
			c7,0,12.6,5.6,12.6,12.6V492C-214.7,498.9-220.3,504.6-227.3,504.6"/>
	</g>
	<path style="fill:#E89330;" d="M-214.7,452.4V492c0,7-5.6,12.6-12.6,12.6h-13.5c6.9,0,12.6-5.6,12.6-12.6v-39.5
		c0-7-5.6-12.6-12.6-12.6h13.5C-220.4,439.9-214.7,445.5-214.7,452.4z"/>
	<path style="fill:#F9CF00;" d="M-121.2,504.6h-39.6c-6.9,0-12.6-5.6-12.6-12.6v-39.6c0-6.9,5.6-12.6,12.6-12.6h39.6
		c7,0,12.6,5.6,12.6,12.6V492C-108.7,498.9-114.3,504.6-121.2,504.6"/>
	<path style="fill:#E89330;" d="M-108.7,452.4V492c0,7-5.6,12.6-12.6,12.6h-13.5c6.9,0,12.6-5.6,12.6-12.6v-39.5
		c0-7-5.6-12.6-12.6-12.6h13.5C-114.3,439.9-108.7,445.5-108.7,452.4z"/>
	<path style="fill:#F9CF00;" d="M-15.2,504.6h-39.6c-7,0-12.6-5.6-12.6-12.6v-39.6c0-6.9,5.6-12.6,12.6-12.6h39.6
		c7,0,12.6,5.6,12.6,12.6V492C-2.6,498.9-8.3,504.6-15.2,504.6"/>
	<path style="fill:#E89330;" d="M-2.6,452.4V492c0,7-5.6,12.6-12.6,12.6h-13.5c6.9,0,12.6-5.6,12.6-12.6v-39.5
		c0-7-5.6-12.6-12.6-12.6h13.5C-8.3,439.9-2.6,445.5-2.6,452.4z"/>
	<path style="fill:#F9CF00;" d="M90.8,504.6H51.3c-7,0-12.6-5.6-12.6-12.6v-39.6c0-6.9,5.6-12.6,12.6-12.6h39.6
		c7,0,12.6,5.6,12.6,12.6V492C103.4,498.9,97.8,504.6,90.8,504.6"/>
	<path style="fill:#E89330;" d="M103.4,452.4V492c0,7-5.6,12.6-12.6,12.6H77.4c6.9,0,12.6-5.6,12.6-12.6v-39.5
		c0-7-5.6-12.6-12.6-12.6h13.5C97.8,439.9,103.4,445.5,103.4,452.4z"/>
	<path style="fill:#E89330;" d="M-2.6,359.2v35.3c0,7-5.6,12.6-12.6,12.6h-13.5c6.9,0,12.6-5.6,12.6-12.6v-39.5
		c0-7-5.6-12.6-12.6-12.6h9.7C-13.8,348.2-8.3,353.8-2.6,359.2z"/>
	<path style="fill:#AFCBD8;" d="M66.2,407H51.3c-6.9,0-12.6-5.6-12.6-12.6v-2.9C47.6,397.2,56.7,402.4,66.2,407z"/>
	<g>
		<path style="fill:#231F20;" d="M49.2,540.7h-371c-2.7,0-4.8-2.2-4.8-4.8v-75.1c0-4.5-3.6-8.1-8.1-8.1c-4.5,0-8.1,3.6-8.1,8.1v75.1
			c0,11.6,9.4,21,21,21h371c4.5,0,8.1-3.6,8.1-8.1C57.3,544.4,53.6,540.7,49.2,540.7z"/>
		<path style="fill:#231F20;" d="M148,102.5h-24.2V69c0-13.2-10.7-24-24-24s-24,10.7-24,24v33.4H59.5V69c0-13.2-10.7-24-24-24
			s-24,10.7-24,24v33.4c-14.7,0-11.5,0-26.4,0c-4.5,0-8.1,3.6-8.1,8.1s3.6,8.1,8.1,8.1c14.8,0,11.6,0,26.4,0
			c0,35.7-1.1,39.3,4.3,47.1c13.4,19.2,43.6,9.7,43.6-13.7v-33.4h16.4v33.4c0,19.7,22.6,30.9,38.3,19.2c5.8-4.4,9.6-11.3,9.6-19.2
			v-33.4H148c2.7,0,4.8,2.2,4.8,4.8v73.2h-479.5v-73.2c0-2.7,2.2-4.8,4.8-4.8h24.2c0,35.5-1.1,39.1,4.1,46.8
			c13.2,19.6,43.8,10.1,43.8-13.4v-33.4h16.4v33.4c0,13.2,10.7,24,24,24c13.2,0,24-10.8,24-24v-33.4c5,0,129.8,0,136.2,0
			c4.5,0,8.1-3.6,8.1-8.1s-3.6-8.1-8.1-8.1c-6.4,0-131.2,0-136.2,0V69c0-13.2-10.7-24-23.9-24c-13.2,0-24,10.7-24,24v33.4h-16.4V69
			c0-13.2-10.7-24-24-24c-13.2,0-24,10.7-24,24v33.4c-25.6,0-28.5-0.7-34.6,2.8c-3.4,1.9-6.3,5-8.1,8.3l0,0
			c-3.7,6.9-2.5-15.4-2.5,309.2c0,4.5,3.6,8.1,8.1,8.1c4.5,0,8.1-3.6,8.1-8.1V212.9h479.5v323c0,2.7-2.2,4.8-4.8,4.8H90.8
			c-4.5,0-8.1,3.6-8.1,8.1c0,4.5,3.6,8.1,8.1,8.1H148c11.6,0,21-9.4,21-21c0-11.2,0-402.3,0-412.4C169,111.9,159.6,102.5,148,102.5z
			 M35.6,61.3c4.3,0,7.8,3.5,7.8,7.8c0,10.1,0,72.9,0,83c0,6.6-7.7,10.2-12.7,6c-1.7-1.4-2.8-3.6-2.8-6c0-16.6,0-66.5,0-83
			C27.8,64.7,31.3,61.3,35.6,61.3z M92.1,69c0-4.3,3.5-7.8,7.8-7.8c4.3,0,7.8,3.5,7.8,7.8c0,90,0.9,85.4-2.3,88.5
			c-4.9,4.9-13.3,1.4-13.3-5.5C92.1,141.9,92.1,79.2,92.1,69z M-217.2,69c0-4.3,3.5-7.8,7.8-7.8c4.3,0,7.8,3.5,7.8,7.8
			c0,10.1,0,72.9,0,83c0,4.3-3.5,7.8-7.8,7.8s-7.8-3.5-7.8-7.8C-217.2,141.9-217.2,79.2-217.2,69z M-273.7,61.3
			c4.3,0,7.8,3.5,7.8,7.8c0,10.1,0,72.9,0,83c0,4.3-3.5,7.8-7.8,7.8c-4.3,0-7.8-3.5-7.8-7.8c0-6.7,0-67.9,0-83
			C-281.5,64.7-278,61.3-273.7,61.3z"/>
		<path style="fill:#231F20;" d="M-264.4,317.6h39.5c11.4,0,20.6-9.3,20.6-20.6v-39.5c0-11.4-9.3-20.6-20.6-20.6h-39.5
			c-11.4,0-20.6,9.3-20.6,20.6v39.5C-285,308.3-275.8,317.6-264.4,317.6z M-268.8,257.5c0-2.5,2-4.5,4.5-4.5h39.5
			c2.5,0,4.5,2,4.5,4.5v39.5c0,2.5-2,4.5-4.5,4.5h-39.5c-2.5,0-4.5-2-4.5-4.5L-268.8,257.5L-268.8,257.5z"/>
		<path style="fill:#231F20;" d="M-158.6,317.6h39.5c11.4,0,20.6-9.3,20.6-20.6v-39.5c0-11.4-9.3-20.6-20.6-20.6h-39.5
			c-11.4,0-20.6,9.3-20.6,20.6v39.5C-179.2,308.3-170,317.6-158.6,317.6z M-163.1,257.5c0-2.5,2-4.5,4.5-4.5h39.5
			c2.5,0,4.5,2,4.5,4.5v39.5c0,2.5-2,4.5-4.5,4.5h-39.5c-2.5,0-4.5-2-4.5-4.5L-163.1,257.5L-163.1,257.5z"/>
		<path style="fill:#231F20;" d="M-52.8,317.6h39.5c11.4,0,20.6-9.3,20.6-20.6v-39.5c0-11.4-9.3-20.6-20.6-20.6h-39.5
			c-11.4,0-20.6,9.3-20.6,20.6v39.5C-73.4,308.3-64.2,317.6-52.8,317.6z M-57.3,257.5c0-2.5,2-4.5,4.5-4.5h39.5c2.5,0,4.5,2,4.5,4.5
			v39.5c0,2.5-2,4.5-4.5,4.5h-39.5c-2.5,0-4.5-2-4.5-4.5L-57.3,257.5L-57.3,257.5z"/>
		<path style="fill:#231F20;" d="M53,317.6h39.5c11.4,0,20.6-9.3,20.6-20.6v-39.5c0-11.4-9.3-20.6-20.6-20.6H53
			c-11.4,0-20.6,9.3-20.6,20.6v39.5C32.3,308.3,41.6,317.6,53,317.6z M48.5,257.5c0-2.5,2-4.5,4.5-4.5h39.5c2.5,0,4.5,2,4.5,4.5
			v39.5c0,2.5-2,4.5-4.5,4.5H53c-2.5,0-4.5-2-4.5-4.5L48.5,257.5L48.5,257.5z"/>
		<path style="fill:#231F20;" d="M-285,394.2c0,11.4,9.3,20.6,20.6,20.6h39.5c11.4,0,20.6-9.3,20.6-20.6v-39.5
			c0-11.4-9.3-20.6-20.6-20.6h-39.5c-11.4,0-20.6,9.3-20.6,20.6L-285,394.2z M-268.8,354.8c0-2.5,2-4.5,4.5-4.5h39.5
			c2.5,0,4.5,2,4.5,4.5v39.5c0,2.5-2,4.5-4.5,4.5h-39.5c-2.5,0-4.5-2-4.5-4.5L-268.8,354.8L-268.8,354.8z"/>
		<path style="fill:#231F20;" d="M-179.2,394.2c0,11.4,9.3,20.6,20.6,20.6h39.5c11.4,0,20.6-9.3,20.6-20.6v-39.5
			c0-11.4-9.3-20.6-20.6-20.6h-39.5c-11.4,0-20.6,9.3-20.6,20.6L-179.2,394.2L-179.2,394.2z M-163.1,354.8c0-2.5,2-4.5,4.5-4.5h39.5
			c2.5,0,4.5,2,4.5,4.5v39.5c0,2.5-2,4.5-4.5,4.5h-39.5c-2.5,0-4.5-2-4.5-4.5L-163.1,354.8L-163.1,354.8z"/>
		<path style="fill:#231F20;" d="M-73.4,394.2c0,11.4,9.3,20.6,20.6,20.6h39.5c11.4,0,20.6-9.3,20.6-20.6v-39.5
			c0-11.4-9.3-20.6-20.6-20.6h-39.5c-11.4,0-20.6,9.3-20.6,20.6V394.2z M-57.3,354.8c0-2.5,2-4.5,4.5-4.5h39.5c2.5,0,4.5,2,4.5,4.5
			v39.5c0,2.5-2,4.5-4.5,4.5h-39.5c-2.5,0-4.5-2-4.5-4.5L-57.3,354.8L-57.3,354.8z"/>
		<path style="fill:#231F20;" d="M32.3,394.2c0,11.4,9.3,20.6,20.6,20.6h39.5c11.4,0,20.6-9.3,20.6-20.6v-39.5
			c0-11.4-9.3-20.6-20.6-20.6H53c-11.4,0-20.6,9.3-20.6,20.6V394.2z M48.5,354.8c0-2.5,2-4.5,4.5-4.5h39.5c2.5,0,4.5,2,4.5,4.5v39.5
			c0,2.5-2,4.5-4.5,4.5H53c-2.5,0-4.5-2-4.5-4.5L48.5,354.8L48.5,354.8z"/>
		<path style="fill:#231F20;" d="M-285,491.5c0,11.4,9.3,20.6,20.6,20.6h39.5c11.4,0,20.6-9.3,20.6-20.6v-39.5
			c0-11.4-9.3-20.6-20.6-20.6h-39.5c-11.4,0-20.6,9.3-20.6,20.6L-285,491.5z M-268.8,452.1c0-2.5,2-4.5,4.5-4.5h39.5
			c2.5,0,4.5,2,4.5,4.5v39.5c0,2.5-2,4.5-4.5,4.5h-39.5c-2.5,0-4.5-2-4.5-4.5L-268.8,452.1L-268.8,452.1z"/>
		<path style="fill:#231F20;" d="M-179.2,491.5c0,11.4,9.3,20.6,20.6,20.6h39.5c11.4,0,20.6-9.3,20.6-20.6v-39.5
			c0-11.4-9.3-20.6-20.6-20.6h-39.5c-11.4,0-20.6,9.3-20.6,20.6L-179.2,491.5L-179.2,491.5z M-163.1,452.1c0-2.5,2-4.5,4.5-4.5h39.5
			c2.5,0,4.5,2,4.5,4.5v39.5c0,2.5-2,4.5-4.5,4.5h-39.5c-2.5,0-4.5-2-4.5-4.5L-163.1,452.1L-163.1,452.1z"/>
		<path style="fill:#231F20;" d="M-73.4,491.5c0,11.4,9.3,20.6,20.6,20.6h39.5c11.4,0,20.6-9.3,20.6-20.6v-39.5
			c0-11.4-9.3-20.6-20.6-20.6h-39.5c-11.4,0-20.6,9.3-20.6,20.6V491.5z M-57.3,452.1c0-2.5,2-4.5,4.5-4.5h39.5c2.5,0,4.5,2,4.5,4.5
			v39.5c0,2.5-2,4.5-4.5,4.5h-39.5c-2.5,0-4.5-2-4.5-4.5L-57.3,452.1L-57.3,452.1z"/>
		<path style="fill:#231F20;" d="M32.3,491.5c0,11.4,9.3,20.6,20.6,20.6h39.5c11.4,0,20.6-9.3,20.6-20.6v-39.5
			c0-11.4-9.3-20.6-20.6-20.6H53c-11.4,0-20.6,9.3-20.6,20.6V491.5z M48.5,452.1c0-2.5,2-4.5,4.5-4.5h39.5c2.5,0,4.5,2,4.5,4.5v39.5
			c0,2.5-2,4.5-4.5,4.5H53c-2.5,0-4.5-2-4.5-4.5L48.5,452.1L48.5,452.1z"/>
	</g>
</g>
</svg>
