<?xml version="1.0" encoding="utf-8"?>
<!-- Generator: Adobe Illustrator 19.1.0, SVG Export Plug-In . SVG Version: 6.00 Build 0)  -->
<svg version="1.1" id="Capa_1" xmlns="http://www.w3.org/2000/svg" xmlns:xlink="http://www.w3.org/1999/xlink" x="0px" y="0px"
	 viewBox="-453 254 53 53" style="enable-background:new -453 254 53 53;" xml:space="preserve">
<style type="text/css">
	.st0{fill:#FFFFFF;}
	.st1{fill:#5B2B78;}
</style>
<path class="st0" d="M-434.6,295.6l-7.9,4.3c-0.5,0.3-0.9,0.6-1.3,0.9c4.6,3.9,10.6,6.2,17.1,6.2s12.4-2.3,17-6.1
	c-0.4-0.4-0.9-0.7-1.4-0.9l-8.5-4.2c-1.1-0.5-1.8-1.7-1.8-2.9v-3.3c0.2-0.3,0.5-0.6,0.8-1c1.2-1.6,2-3.4,2.6-5.3
	c1.1-0.3,1.9-1.3,1.9-2.5v-3.5c0-0.8-0.3-1.5-0.9-2V270c0,0,1.1-8-9.8-8s-9.8,8-9.8,8v5.1c-0.5,0.5-0.9,1.2-0.9,2v3.5
	c0,0.9,0.5,1.8,1.2,2.2c0.9,3.9,3.2,6.6,3.2,6.6v3.2C-432.9,293.9-433.6,295-434.6,295.6z"/>
<g>
	<path class="st1" d="M-426.2,254c-14.6-0.3-26.7,11.4-26.9,26c-0.1,8.3,3.6,15.8,9.4,20.7c0.4-0.3,0.8-0.6,1.3-0.9l7.9-4.3
		c1-0.6,1.7-1.7,1.7-2.8v-3.2c0,0-2.3-2.8-3.2-6.6c-0.7-0.5-1.2-1.3-1.2-2.2v-3.5c0-0.8,0.3-1.5,0.9-2V270c0,0-1.1-8,9.8-8
		c10.8,0,9.8,8,9.8,8v5.1c0.5,0.5,0.9,1.2,0.9,2v3.5c0,1.2-0.8,2.2-1.9,2.5c-0.6,1.9-1.5,3.7-2.6,5.3c-0.3,0.4-0.6,0.8-0.8,1v3.3
		c0,1.2,0.7,2.3,1.8,2.9l8.5,4.2c0.5,0.3,1,0.6,1.4,0.9c5.7-4.8,9.4-11.9,9.5-19.9C-400,266.3-411.6,254.3-426.2,254z"/>
</g>
</svg>
