<?xml version="1.0" encoding="utf-8"?>
<!-- Generator: Adobe Illustrator 19.1.0, SVG Export Plug-In . SVG Version: 6.00 Build 0)  -->
<svg version="1.1" id="Capa_1" xmlns="http://www.w3.org/2000/svg" xmlns:xlink="http://www.w3.org/1999/xlink" x="0px" y="0px"
	 viewBox="-343 45 512 512" style="enable-background:new -343 45 512 512;" xml:space="preserve">
<g>
	<polygon style="fill:#FEFDCA;" points="-211.2,254.7 -204.4,320.1 -268.3,352.7 -239,254.7 	"/>
	<polygon style="fill:#FEFDCA;" points="148.3,254.7 155.1,320.1 91.2,352.7 120.5,254.7 	"/>
	<path style="fill:#F99830;" d="M157.7,345.9l-2.7-25.8h-31.2l-31.2,98c36.1,0,65.4-29.3,65.4-65.4
		C158.1,350.4,158,348.1,157.7,345.9z"/>
	<path style="fill:#F99830;" d="M-201.7,345.9l-2.7-25.8h-31.2l-31.2,98c36.1,0,65.4-29.3,65.4-65.4
		C-201.4,350.4-201.5,348.1-201.7,345.9z"/>
	<polygon style="fill:#F99830;" points="-87,53.2 -54.3,53.2 -54.3,85.9 -97.9,107.6 	"/>
	<polygon style="fill:#F9CF00;" points="-87,53.2 -87,107.6 -119.7,85.9 -119.7,53.2 	"/>
	<polygon style="fill:#F99830;" points="-87,85.9 -54.3,85.9 -54.3,170.3 -108.8,192.1 	"/>
	<polygon style="fill:#F9CF00;" points="-87,85.9 -87,192.1 -119.7,170.3 -119.7,85.9 	"/>
	<path style="fill:#592B76;" d="M-5.3,287.4c0-33.4-20.1-62.2-48.9-74.8l-3.4,336.3H-38c18,0,32.7-14.7,32.7-32.7v-98l-17.1-65.4
		L-5.3,287.4z"/>
	<path style="fill:#79439E;" d="M-38,273.2c0-24.1-6.3-45.7-16.2-60.7c-0.1,0-0.1,0-0.2-0.1v-42.2h-65.4v42.2
		c-28.8,12.6-49,41.4-49,74.9l43.3,65.4l-43.3,65.4v98c0,18,14.7,32.7,32.7,32.7h78.4c10.8,0,19.6-14.7,19.6-32.7V273.2z"/>
	<polygon style="fill:#FEC8BB;" points="-5.3,287.4 -5.3,418.1 -38,418.1 -70.7,352.7 -38,287.4 	"/>
	<rect x="-168.7" y="287.4" style="fill:#FEFDCA;" width="130.7" height="130.7"/>
	<polygon style="fill:#FFFFFF;" points="120.5,254.7 123.9,320.1 77.2,341.9 30.4,320.1 37.2,254.7 	"/>
	<path style="fill:#F9CF00;" d="M125.3,345.9c0.1,2.2,0.2,4.5,0.2,6.8c0,36.1-14.6,65.4-32.7,65.4c-36.1,0-65.4-29.3-65.4-65.4
		c0-2.3,0.1-4.6,0.4-6.8l2.7-25.8h93.5L125.3,345.9z"/>
	<path style="fill:#FEFDCA;" d="M92.7,527C65,527,65,548.8,37.2,548.8h111.1C120.5,548.8,120.5,527,92.7,527z"/>
	<polygon style="fill:#FFFFFF;" points="-239,254.7 -235.6,320.1 -282.3,341.9 -329.1,320.1 -322.3,254.7 	"/>
	<path style="fill:#F9CF00;" d="M-234.2,345.9c0.1,2.2,0.2,4.5,0.2,6.8c0,36.1-14.6,65.4-32.7,65.4c-36.1,0-65.4-29.3-65.4-65.4
		c0-2.3,0.1-4.6,0.4-6.8l2.7-25.8h93.5L-234.2,345.9z"/>
	<path style="fill:#FEFDCA;" d="M-266.7,527c-27.8,0-27.8,21.8-55.6,21.8h111.1C-239,548.8-239,527-266.7,527z"/>
	<path d="M-46.1,207.3V93.5c3.2-1.1,5.4-4.1,5.4-7.7c0-3.6-2.3-6.6-5.4-7.7v-25c0-4.5-3.7-8.2-8.2-8.2h-65.4c-4.5,0-8.2,3.7-8.2,8.2
		v25c-3.2,1.1-5.4,4.1-5.4,7.7c0,3.6,2.3,6.6,5.4,7.7v113.8c-30,15.3-49,46.1-49,80.1v130.7c0,4.5,3.7,8.2,8.2,8.2h155.2v89.9
		c0,13.5-11,24.5-24.5,24.5h-98c-13.5,0-24.5-11-24.5-24.5v-65.4c0-4.5-3.7-8.2-8.2-8.2s-8.2,3.7-8.2,8.2v65.4
		c0,22.5,18.3,40.9,40.9,40.9h98c22.5,0,40.9-18.3,40.9-40.9V287.4C2.9,253.5-16.2,222.6-46.1,207.3z M-111.5,94h49v68.1h-49V94z
		 M-62.5,61.3v16.3h-49V61.3H-62.5z M-116.4,220c3-1.3,4.9-4.2,4.9-7.5v-34.1h49v34.1c0,3.2,1.9,6.2,4.9,7.5
		c24.3,10.6,40.8,33.3,43.7,59.2h-146.2C-157.2,253.3-140.7,230.6-116.4,220z M-160.5,409.9V295.6h147.1v114.4H-160.5z"/>
	<path d="M148.3,540.7c-11.1,0-16.2-4-22.7-9.2c-5.9-4.6-13-10.2-24.7-12v-93.7c36.7-4.1,65.4-35.3,65.4-73.1c0-2.6-0.1-5.1-0.4-7.7
		l-2.7-25.8c0-0.1-6.8-65.4-6.8-65.4c-0.4-4.2-3.9-7.3-8.1-7.3H37.2c-4.2,0-7.7,3.2-8.1,7.3l-9.4,91.2c-0.3,2.6-0.4,5.1-0.4,7.7
		c0,37.8,28.6,69,65.4,73.1v93.7c-11.6,1.8-18.7,7.4-24.7,12c-6.5,5.1-11.7,9.2-22.7,9.2c-4.5,0-8.2,3.7-8.2,8.2s3.7,8.2,8.2,8.2
		h111.1c4.5,0,8.2-3.7,8.2-8.2S152.8,540.7,148.3,540.7z M35.6,352.7c0-2,0.1-4,0.3-6l8.7-83.9h96.4l5.1,49H63.1
		c-4.5,0-8.2,3.7-8.2,8.2c0,4.5,3.7,8.2,8.2,8.2h84.6l1.9,18.5c0.2,2,0.3,4,0.3,6c0,31.5-25.7,57.2-57.2,57.2S35.6,384.3,35.6,352.7
		z M74.9,540.7c4.7-3.2,9.6-5.4,17.8-5.4s13.2,2.2,17.8,5.4H74.9z"/>
	<path d="M-193.2,352.7c0-2.5-0.1-5.1-0.4-7.7l-2.7-25.8c0-0.1-6.8-65.4-6.8-65.4c-0.4-4.2-3.9-7.3-8.1-7.3h-111.1
		c-4.2,0-7.7,3.2-8.1,7.3l-9.4,91.2c-0.3,2.5-0.4,5.1-0.4,7.7c0,37.8,28.6,69,65.4,73.1v93.7c-11.6,1.8-18.7,7.4-24.7,12
		c-6.5,5.1-11.7,9.2-22.7,9.2c-4.5,0-8.2,3.7-8.2,8.2s3.7,8.2,8.2,8.2h111.1c4.5,0,8.2-3.7,8.2-8.2s-3.7-8.2-8.2-8.2
		c-11.1,0-16.2-4-22.7-9.2c-5.9-4.6-13-10.2-24.7-12v-93.7C-221.9,421.7-193.2,390.5-193.2,352.7z M-323.9,352.7c0-2,0.1-4,0.3-6
		l8.7-83.9h96.4l5.1,49h-82.9c-4.5,0-8.2,3.7-8.2,8.2c0,4.5,3.7,8.2,8.2,8.2h84.6l1.9,18.5c0.2,2,0.3,4,0.3,6
		c0,31.5-25.7,57.2-57.2,57.2S-323.9,384.3-323.9,352.7z M-284.6,540.7c4.7-3.2,9.6-5.4,17.8-5.4s13.2,2.2,17.8,5.4H-284.6z"/>
</g>
</svg>
